<?xml version="1.0" encoding="UTF-8" standalone="no"?><!-- Generator: Gravit.io --><svg xmlns="http://www.w3.org/2000/svg" xmlns:xlink="http://www.w3.org/1999/xlink" style="isolation:isolate" viewBox="0 0 310 70" width="310pt" height="70pt"><defs><clipPath id="_clipPath_6ePshedaFyB2wLbzn1R7EYPgqQYOn9U7"><rect width="310" height="70"/></clipPath></defs><g clip-path="url(#_clipPath_6ePshedaFyB2wLbzn1R7EYPgqQYOn9U7)"><g><path d=" M 304.122 28.206 C 304.213 28.227 304.304 28.235 304.395 28.257 C 304.305 28.236 304.214 28.222 304.122 28.206 Z " fill="rgb(14,58,138)"/><path d=" M 25.608 43.817 L 25.608 48.375 C 25.608 48.728 25.322 49.013 24.969 49.013 L 3.958 49.013 C 3.606 49.013 3.32 48.728 3.32 48.375 L 3.32 44.639 C 3.32 44.468 3.388 44.305 3.509 44.185 L 14.696 33.101 C 15.902 31.893 16.717 30.854 17.139 29.985 C 17.561 29.117 17.772 28.255 17.772 27.4 C 17.772 26.162 17.371 25.212 16.57 24.549 C 15.77 23.886 14.597 23.554 13.053 23.554 C 11.76 23.554 10.595 23.812 9.556 24.328 C 8.689 24.758 7.938 25.369 7.305 26.159 C 7.092 26.424 6.722 26.499 6.44 26.309 L 2.512 23.654 C 2.215 23.453 2.129 23.039 2.339 22.749 C 3.453 21.208 4.917 19.98 6.733 19.068 C 8.754 18.051 11.072 17.543 13.685 17.543 C 15.875 17.543 17.792 17.918 19.435 18.671 C 21.079 19.421 22.356 20.482 23.269 21.852 C 24.181 23.223 24.639 24.836 24.639 26.692 C 24.639 28.372 24.302 29.948 23.628 31.421 C 22.954 32.896 21.648 34.575 19.709 36.461 L 14.028 42.087 C 13.623 42.488 13.907 43.179 14.478 43.179 L 24.969 43.179 C 25.322 43.179 25.608 43.464 25.608 43.817 Z " fill="rgb(242,105,65)"/><path d=" M 84.151 41.058 C 85.363 39.438 85.97 36.933 85.97 33.544 C 85.97 30.155 85.363 27.65 84.151 26.03 C 82.939 24.41 81.271 23.599 79.146 23.599 C 77.055 23.599 75.403 24.41 74.192 26.03 C 72.98 27.65 72.374 30.155 72.374 33.544 C 72.374 36.933 72.98 39.438 74.192 41.058 C 75.403 42.678 77.055 43.489 79.146 43.489 C 81.271 43.489 82.939 42.678 84.151 41.058 Z  M 71.427 47.643 C 69.17 46.377 67.401 44.543 66.125 42.14 C 64.846 39.74 64.206 36.874 64.206 33.544 C 64.206 30.214 64.846 27.349 66.125 24.947 C 67.401 22.545 69.17 20.711 71.427 19.444 C 73.684 18.178 76.258 17.543 79.146 17.543 C 82.035 17.543 84.608 18.178 86.865 19.444 C 89.122 20.711 90.89 22.545 92.169 24.947 C 93.446 27.349 94.087 30.214 94.087 33.544 C 94.087 36.874 93.446 39.74 92.169 42.14 C 90.89 44.543 89.122 46.377 86.865 47.643 C 84.608 48.911 82.035 49.544 79.146 49.544 C 76.258 49.544 73.684 48.911 71.427 47.643 Z " fill="rgb(242,105,65)"/><path d=" M 50.057 41.058 C 51.269 39.438 51.875 36.933 51.875 33.544 C 51.875 30.155 51.269 27.65 50.057 26.03 C 48.845 24.41 47.177 23.599 45.052 23.599 C 42.961 23.599 41.309 24.41 40.097 26.03 C 38.885 27.65 38.28 30.155 38.28 33.544 C 38.28 36.933 38.885 39.438 40.097 41.058 C 41.309 42.678 42.961 43.489 45.052 43.489 C 47.177 43.489 48.845 42.678 50.057 41.058 Z  M 37.333 47.643 C 35.076 46.377 33.307 44.543 32.03 42.14 C 30.751 39.74 30.112 36.874 30.112 33.544 C 30.112 30.214 30.751 27.349 32.03 24.947 C 33.307 22.545 35.076 20.711 37.333 19.444 C 39.59 18.178 42.164 17.543 45.052 17.543 C 47.941 17.543 50.514 18.178 52.77 19.444 C 55.028 20.711 56.796 22.545 58.075 24.947 C 59.352 27.349 59.993 30.214 59.993 33.544 C 59.993 36.874 59.352 39.74 58.075 42.14 C 56.796 44.543 55.028 46.377 52.77 47.643 C 50.514 48.911 47.941 49.544 45.052 49.544 C 42.164 49.544 39.59 48.911 37.333 47.643 Z " fill="rgb(242,105,65)"/><line x1="132.471" y1="26.671" x2="132.855" y2="27.552"/><path d=" M 127.712 59.333 C 127.507 59.297 127.308 59.226 127.105 59.18 C 127.303 59.243 127.503 59.299 127.712 59.333 Z " fill="rgb(191,42,116)"/><path d=" M 158.443 47.705 C 158.13 47.611 157.836 47.51 157.542 47.409 C 157.828 47.537 158.128 47.641 158.443 47.705 Z " fill="rgb(14,58,138)"/><line x1="148.401" y1="21.613" x2="148.436" y2="21.531"/><path d=" M 152.421 18.918 C 150.637 18.918 149.108 19.995 148.437 21.532 L 148.401 21.613 L 139.382 42.511 L 132.856 27.553 L 132.472 26.671 C 130.488 22.71 126.772 21.071 124.131 20.294 C 123.068 19.981 122.176 19.804 121.65 19.675 C 119.685 19.193 117.441 18.987 115.473 18.987 C 109.43 18.987 106.498 19.516 104.273 21.13 C 102.046 22.744 100.934 24.887 100.934 27.558 C 100.934 29.636 101.471 31.25 102.548 32.399 C 103.622 33.55 104.913 34.366 106.416 34.848 C 107.918 35.33 109.857 35.758 112.231 36.128 C 113.975 36.426 115.319 36.694 116.266 36.935 C 117.211 37.177 117.999 37.556 118.631 38.076 C 119.262 38.596 119.577 39.3 119.577 40.191 C 119.577 42.861 117.238 44.197 112.566 44.197 C 111.771 44.197 110.982 44.137 110.193 44.039 C 109.105 43.903 108.021 43.686 106.944 43.363 C 105.103 42.811 103.539 42.074 102.246 41.158 C 101.81 41.836 101.549 42.639 101.549 43.506 C 101.549 45.299 102.635 46.836 104.184 47.501 C 104.273 47.532 104.365 47.561 104.455 47.591 C 104.71 47.674 104.95 47.764 105.219 47.842 C 107.444 48.491 109.764 48.816 112.176 48.816 C 116.108 48.816 119.215 48.028 121.497 46.451 C 123.778 44.875 124.918 42.751 124.918 40.079 C 124.918 38.076 124.4 36.518 123.361 35.404 C 122.322 34.292 121.069 33.503 119.605 33.039 C 118.139 32.576 116.219 32.14 113.845 31.731 C 112.065 31.398 110.682 31.101 109.698 30.841 C 108.715 30.582 107.891 30.174 107.223 29.617 C 106.555 29.06 106.22 28.3 106.22 27.335 C 106.22 26.111 106.814 25.128 108.002 24.385 C 109.189 23.644 111.203 23.384 115.473 23.384 C 121.04 23.384 126.407 25.26 127.984 29.002 L 136.544 48.355 L 135.598 50.414 C 134.893 52.084 134.105 53.26 133.232 53.947 C 133.063 54.08 132.879 54.189 132.693 54.296 C 131.924 54.743 131.024 54.977 129.977 54.977 C 127.981 54.977 126.226 54.257 124.708 52.82 C 124.313 53.476 124.072 54.235 124.072 55.056 C 124.072 56.996 125.351 58.62 127.105 59.18 C 127.308 59.227 127.507 59.297 127.712 59.334 C 128.454 59.465 129.208 59.541 129.977 59.541 C 132.352 59.541 134.382 58.929 136.071 57.704 C 137.76 56.48 139.234 54.365 140.494 51.36 L 151.067 27.379 L 154.543 19.493 C 153.913 19.138 153.196 18.918 152.421 18.918 Z " fill="rgb(255,255,255)"/><path d=" M 181.754 12.459 L 181.754 12.631 C 182.098 12.533 182.452 12.467 182.825 12.459 L 181.754 12.459 Z " fill="rgb(255,255,255)"/><path d=" M 195.865 42.862 C 194.719 43.777 193.337 44.236 191.717 44.236 C 190.232 44.236 189.092 43.81 188.294 42.956 C 188.149 42.801 188.032 42.621 187.914 42.442 C 187.379 41.633 187.096 40.59 187.096 39.283 L 187.096 26.611 L 187.096 23.312 L 194.896 23.312 C 194.903 23.213 194.926 23.119 194.926 23.019 C 194.926 20.769 193.117 18.947 190.874 18.915 L 190.757 18.915 L 187.096 18.915 L 187.096 16.935 L 187.096 16.396 C 186.958 14.225 185.189 12.504 182.994 12.459 L 182.825 12.459 C 182.452 12.467 182.097 12.533 181.754 12.632 L 181.754 18.915 L 179.357 18.915 L 169.654 18.915 C 169.439 18.914 169.199 18.915 168.891 18.915 C 162.848 18.915 159.917 19.444 157.692 21.057 C 155.466 22.671 154.352 24.814 154.352 27.486 C 154.352 29.564 154.89 31.177 155.967 32.327 C 157.042 33.477 158.333 34.294 159.835 34.775 C 161.337 35.258 163.275 35.685 165.65 36.055 C 167.394 36.353 168.738 36.622 169.684 36.862 C 170.631 37.104 171.419 37.484 172.051 38.003 C 172.68 38.523 172.996 39.227 172.996 40.118 C 172.996 42.789 170.658 44.125 165.984 44.125 C 165.188 44.125 164.397 44.064 163.609 43.966 C 162.52 43.83 161.438 43.612 160.363 43.29 C 158.522 42.738 156.958 42.002 155.666 41.085 C 155.224 41.765 154.963 42.572 154.963 43.444 C 154.963 45.214 156.024 46.73 157.542 47.409 C 157.836 47.51 158.13 47.612 158.443 47.705 C 158.511 47.726 158.569 47.749 158.638 47.769 C 160.863 48.419 163.182 48.744 165.594 48.744 C 169.526 48.744 172.634 47.956 174.916 46.379 C 177.197 44.802 178.338 42.678 178.338 40.007 C 178.338 38.003 177.819 36.445 176.78 35.332 C 175.742 34.219 174.488 33.431 173.023 32.966 C 171.557 32.503 169.638 32.068 167.263 31.659 C 165.483 31.325 164.101 31.028 163.117 30.768 C 162.134 30.509 161.309 30.101 160.641 29.544 C 159.973 28.987 159.638 28.228 159.638 27.262 C 159.638 26.038 160.233 25.055 161.421 24.313 C 162.607 23.571 164.623 23.312 168.891 23.312 L 181.754 23.312 L 181.754 39.505 C 181.754 42.475 182.571 44.757 184.204 46.35 C 185.835 47.946 188.136 48.744 191.104 48.744 C 191.304 48.744 191.498 48.71 191.696 48.7 C 191.946 48.689 192.195 48.673 192.442 48.646 C 194.536 48.332 196.147 46.543 196.147 44.362 C 196.147 43.832 196.039 43.331 195.865 42.862 Z " fill="rgb(255,255,255)"/><path d=" M 203.454 30.885 C 203.847 28.691 204.822 26.89 206.381 25.482 C 208.106 23.924 210.247 23.145 212.808 23.145 C 215.369 23.145 217.512 23.934 219.235 25.51 C 220.791 26.932 221.766 28.724 222.161 30.884 C 222.228 31.257 221.925 31.604 221.546 31.604 L 204.069 31.604 C 203.69 31.604 203.387 31.258 203.454 30.885 Z  M 204.08 35.444 L 226.009 35.444 C 227.153 35.444 227.389 34.239 227.389 33.83 C 227.389 30.862 226.767 28.229 225.524 25.927 C 224.281 23.627 222.556 21.838 220.35 20.557 C 218.142 19.277 215.628 18.637 212.808 18.637 C 209.988 18.637 207.456 19.277 205.212 20.557 C 202.966 21.838 201.205 23.627 199.926 25.927 C 198.644 28.229 198.005 30.806 198.005 33.663 C 198.005 36.557 198.664 39.154 199.98 41.453 C 201.298 43.755 203.162 45.544 205.574 46.824 C 207.984 48.104 210.749 48.744 213.865 48.744 C 216.314 48.744 218.531 48.337 220.516 47.52 C 220.559 47.502 220.599 47.479 220.642 47.461 C 220.888 47.357 221.119 47.24 221.354 47.125 C 222.643 46.37 223.518 44.987 223.518 43.385 C 223.518 42.429 223.201 41.553 222.679 40.835 C 222.475 40.781 222.251 40.826 222.086 40.989 C 220.183 42.857 217.765 43.831 214.882 44 C 214.596 44.016 214.329 44.069 214.033 44.069 C 211.139 44.069 208.718 43.282 206.77 41.704 C 205.008 40.279 203.906 38.434 203.465 36.172 C 203.392 35.797 203.698 35.444 204.08 35.444 Z " fill="rgb(255,255,255)"/><path d=" M 306.219 35.332 C 305.18 34.219 303.927 33.431 302.462 32.967 C 300.996 32.503 299.076 32.068 296.702 31.66 C 294.922 31.326 293.54 31.028 292.556 30.769 C 291.573 30.51 290.748 30.102 290.08 29.544 C 289.412 28.988 289.077 28.228 289.077 27.263 C 289.077 26.039 289.672 25.056 290.86 24.313 C 292.046 23.571 293.772 23.2 296.034 23.2 C 296.147 23.2 296.249 23.219 296.361 23.221 C 299.472 23.272 302.198 24.029 304.522 25.523 C 304.834 24.923 305.028 24.251 305.028 23.528 C 305.028 21.466 303.589 19.749 301.663 19.301 C 301.573 19.28 301.482 19.27 301.391 19.25 C 299.624 18.861 297.858 18.637 296.089 18.637 C 292.343 18.637 289.356 19.444 287.131 21.058 C 284.905 22.671 283.791 24.814 283.791 27.486 C 283.791 29.564 284.329 31.178 285.406 32.327 C 286.48 33.478 287.772 34.294 289.274 34.775 C 290.776 35.258 292.714 35.686 295.088 36.056 C 296.833 36.353 298.177 36.622 299.123 36.862 C 300.07 37.104 300.858 37.484 301.49 38.003 C 302.119 38.523 302.435 39.228 302.435 40.119 C 302.435 42.789 300.329 43.137 295.608 43.549 C 293.721 43.713 279.005 45.199 279.005 34.102 L 279.005 31.436 C 279.005 27.207 277.92 24.017 275.749 21.865 C 273.579 19.713 270.639 18.637 266.928 18.637 C 264.443 18.637 262.207 19.12 260.222 20.083 C 258.238 21.049 256.689 22.385 255.576 24.091 C 254.612 22.31 253.238 20.956 251.457 20.028 C 249.677 19.102 247.636 18.637 245.337 18.637 C 243.111 18.637 241.125 19.036 239.381 19.833 C 237.637 20.632 236.227 21.791 235.153 23.312 L 235.153 22.606 L 235.153 22.413 C 235.101 20.507 233.576 18.978 231.674 18.915 L 231.438 18.915 L 230.032 18.915 L 230.032 19.251 L 230.032 25.768 L 230.032 48.41 L 235.374 48.41 L 235.374 33.217 C 235.374 30.064 236.172 27.644 237.767 25.955 C 239.363 24.268 241.515 23.423 244.223 23.423 C 246.671 23.423 248.554 24.146 249.871 25.593 C 251.188 27.04 251.847 29.192 251.847 32.049 L 251.847 41.688 L 251.847 47.942 L 251.847 48.41 L 253.522 48.41 L 253.692 48.41 C 255.574 48.365 257.087 46.88 257.191 45.012 L 257.191 44.618 L 257.191 33.217 C 257.191 30.064 257.987 27.644 259.583 25.955 C 261.177 24.268 263.329 23.423 266.039 23.423 C 268.488 23.423 270.369 24.146 271.688 25.593 C 273.003 27.04 273.662 29.192 273.662 32.049 L 273.662 36.907 C 273.662 46.065 281.789 48.744 295.033 48.744 C 298.965 48.744 302.073 47.956 304.355 46.379 C 306.636 44.802 307.777 42.678 307.777 40.007 C 307.777 38.003 307.258 36.445 306.219 35.332 Z " fill="rgb(255,255,255)"/></g></g></svg>