<svg width="122" height="122" viewBox="0 0 122 122" fill="none" xmlns="http://www.w3.org/2000/svg">
<path fill-rule="evenodd" clip-rule="evenodd" d="M51.9344 121C48.6007 121 45.4769 119.365 43.5831 116.624L38.23 108.897C35.0312 104.832 30.6793 102.204 25.6468 101.294L18.4186 99.9708C14.9067 99.3333 11.9554 96.8474 10.716 93.4822C10.0935 91.8062 9.93791 89.9707 10.266 88.1785L11.5598 81.0937C12.5123 75.8106 11.4379 70.4451 8.53728 65.9869C8.2954 65.5969 8.02915 65.2238 7.8004 64.9108L2.79599 57.6892C1.58473 55.9269 0.964104 53.8703 1.0016 51.7424C1.06348 48.4822 2.69474 45.4338 5.36663 43.5891L13.7404 37.7942C17.8692 34.7233 20.7155 30.2295 21.7449 25.147L23.1061 17.6742C23.8505 13.5797 26.9743 10.3926 31.0599 9.55456C32.3031 9.29584 33.6137 9.28084 34.8943 9.51331L43.1594 11.0206C45.3944 11.3018 47.6575 11.2156 49.8513 10.7638C52.6113 10.2088 55.2157 9.09524 57.5932 7.45294L64.3039 2.80915C65.4439 2.02175 66.7039 1.48181 68.0464 1.20622C68.7177 1.06937 69.4021 1 70.0827 1C73.4033 1 76.5215 2.63667 78.4227 5.37945L83.4572 12.6592C86.5528 16.8174 91.0622 19.667 96.1491 20.6719L105.412 22.3592C108.08 22.8523 110.395 24.3446 111.933 26.5587C113.476 28.7934 114.055 31.4874 113.566 34.1459L111.805 43.8496C111.072 48.994 112.272 54.2096 115.186 58.5178L119.201 64.3108C120.738 66.5362 121.317 69.2283 120.834 71.8943C120.35 74.5621 118.857 76.8774 116.634 78.4128L110.086 82.9441C106.017 86.1237 103.276 90.6513 102.365 95.6944L100.73 104.648C99.9779 108.762 96.8579 111.951 92.7778 112.774C91.5516 113.032 90.2503 113.049 88.9378 112.817L79.3096 111.06C78.3215 110.916 77.3034 110.841 76.2946 110.841C74.8977 110.841 73.4877 110.983 72.104 111.262C69.3796 111.817 66.8202 112.901 64.5008 114.485L57.6907 119.193C56.5732 119.967 55.317 120.507 53.9595 120.798C53.2901 120.933 52.6113 121 51.9344 121Z" fill="black"/>
<path d="M51.9344 121C48.6007 121 45.4769 119.365 43.5831 116.624L38.23 108.897C35.0312 104.832 30.6793 102.204 25.6468 101.294L18.4186 99.9708C14.9067 99.3333 11.9554 96.8474 10.716 93.4822C10.0935 91.8062 9.93791 89.9708 10.266 88.1785L11.5598 81.0937C12.5123 75.8106 11.4379 70.4451 8.53728 65.9869C8.2954 65.5969 8.02915 65.2238 7.8004 64.9108L2.79599 57.6892C1.58473 55.9269 0.964104 53.8703 1.0016 51.7424C1.06348 48.4822 2.69474 45.4338 5.36663 43.5891L13.7404 37.7942C17.8692 34.7233 20.7155 30.2295 21.7449 25.147L23.1061 17.6742C23.8505 13.5797 26.9743 10.3926 31.0599 9.55456C32.3031 9.29584 33.6137 9.28084 34.8943 9.51331L43.1594 11.0206C45.3944 11.3018 47.6575 11.2156 49.8513 10.7638C52.6113 10.2088 55.2157 9.09524 57.5932 7.45294L64.3039 2.80915C65.4439 2.02175 66.7039 1.48181 68.0464 1.20622C68.7177 1.06937 69.4021 1 70.0827 1C73.4033 1 76.5215 2.63667 78.4227 5.37945L83.4572 12.6592C86.5528 16.8174 91.0622 19.667 96.1491 20.6719L105.412 22.3592C108.08 22.8523 110.395 24.3446 111.933 26.5587C113.476 28.7934 114.055 31.4874 113.566 34.1459L111.805 43.8496C111.072 48.994 112.272 54.2096 115.186 58.5178L119.201 64.3108C120.738 66.5362 121.317 69.2283 120.834 71.8943C120.35 74.5621 118.857 76.8774 116.634 78.4128L110.086 82.9441C106.017 86.1237 103.276 90.6513 102.365 95.6944L100.73 104.648C99.9779 108.762 96.8579 111.951 92.7778 112.774C91.5516 113.032 90.2503 113.049 88.9378 112.817L79.3096 111.06C78.3215 110.916 77.3034 110.841 76.2946 110.841C74.8977 110.841 73.4877 110.983 72.104 111.262C69.3796 111.817 66.8202 112.901 64.5008 114.485L57.6907 119.193C56.5732 119.967 55.317 120.507 53.9595 120.798C53.2901 120.933 52.6113 121 51.9344 121" stroke="white" stroke-width="2"/>
<path fill-rule="evenodd" clip-rule="evenodd" d="M51.4731 38.2877C50.7687 35.342 49.9275 31.894 49.4009 29.7201C48.8794 31.894 48.0382 35.342 47.3338 38.2877H51.4731ZM54.4121 43.163C54.5421 43.6691 54.2805 44.1753 53.8069 44.3226C53.3624 44.472 52.9195 44.1753 52.7828 43.6691C52.7828 43.6691 52.4442 42.2127 51.9484 40.192H46.8585C46.3626 42.2127 46.019 43.6691 46.019 43.6691C45.889 44.1753 45.4445 44.472 44.9692 44.3226C44.5264 44.1753 44.2648 43.6691 44.3947 43.163L48.5921 25.9153C48.6964 25.4964 49.035 25.2017 49.4009 25.2017C49.7719 25.2017 50.1104 25.4964 50.2147 25.9153L54.4121 43.163Z" fill="#FEFEFE"/>
<path fill-rule="evenodd" clip-rule="evenodd" d="M59.1717 29.7239V39.8391C59.1717 41.2961 60.2065 42.4582 61.506 42.4582C62.7796 42.4582 63.8421 41.2961 63.8421 39.8391V29.7239C63.8421 28.296 62.7796 27.1068 61.506 27.1068C60.2065 27.1068 59.1717 28.296 59.1717 29.7239ZM57.4707 39.8391V29.7239C57.4707 27.2251 59.2773 25.2017 61.506 25.2017C63.7366 25.2017 65.5379 27.2251 65.5379 29.7239V39.8391C65.5379 42.3398 63.7366 44.3613 61.506 44.3613C59.2773 44.3613 57.4707 42.3398 57.4707 39.8391Z" fill="#FEFEFE"/>
<path fill-rule="evenodd" clip-rule="evenodd" d="M74.8803 39.897C74.9352 39.1251 74.6909 38.3222 74.1775 37.7558L69.8332 32.8781C69.0171 31.9569 68.5852 30.6788 68.6932 29.3987C68.7728 28.0915 69.3729 26.9007 70.3183 26.1249C71.2424 25.353 72.4639 25.0272 73.6322 25.2929C74.7723 25.5625 75.7778 26.3344 76.3779 27.467C76.6205 27.9112 76.4859 28.5046 76.0469 28.7742C75.6433 29.0419 75.1016 28.8634 74.8803 28.4174C74.5298 27.7618 73.9615 27.3157 73.28 27.1664C72.6002 27.019 71.8974 27.1974 71.3521 27.6435C70.8104 28.0915 70.4864 28.7742 70.4333 29.517C70.3732 30.2909 70.621 31.0046 71.0813 31.5399L75.4255 36.4486C76.27 37.399 76.7019 38.7062 76.6205 40.0444C76.5125 41.3826 75.9124 42.6025 74.9352 43.4074C73.9615 44.2103 72.7082 44.5362 71.5132 44.2705C70.3183 44.0028 69.2915 43.198 68.6648 42.0401C68.4489 41.563 68.5852 40.9986 68.9906 40.729C69.4013 40.4633 69.9412 40.6107 70.1837 41.0878C70.5413 41.7705 71.1627 42.2476 71.869 42.395C72.5736 42.5444 73.3083 42.3659 73.8748 41.8888C74.4749 41.4156 74.8272 40.6999 74.8803 39.897Z" fill="#FEFEFE"/>
<path fill-rule="evenodd" clip-rule="evenodd" d="M45.3696 67.5967V50.3677C45.3696 49.8256 45.769 49.4033 46.2276 49.4033H51.5723C52.0553 49.4033 52.4285 49.8256 52.4285 50.3677C52.4285 50.9117 52.0553 51.3301 51.5723 51.3301H47.0785V57.7173H51.0387C51.5182 57.7173 51.8966 58.1396 51.8966 58.6817C51.8966 59.2218 51.5182 59.6441 51.0387 59.6441H47.0785V67.5967C47.0785 68.1368 46.7054 68.563 46.2276 68.563C45.769 68.563 45.3696 68.1368 45.3696 67.5967Z" fill="#F9A51A"/>
<path fill-rule="evenodd" clip-rule="evenodd" d="M60.5525 62.4873C59.843 59.544 59.0019 56.0965 58.4805 53.923C57.954 56.0965 57.1181 59.544 56.4086 62.4873H60.5525ZM63.486 67.3637C63.621 67.8679 63.3543 68.3759 62.8859 68.5252C62.4363 68.6725 61.9936 68.3759 61.8619 67.8679C61.8619 67.8679 61.5235 66.4117 61.0226 64.3933H55.9385C55.4376 66.4117 55.0991 67.8679 55.0991 67.8679C54.9675 68.3759 54.5196 68.6725 54.0495 68.5252C53.6067 68.3759 53.3401 67.8679 53.47 67.3637L57.6668 50.1169C57.7711 49.7 58.1147 49.4033 58.4805 49.4033C58.8464 49.4033 59.19 49.7 59.2943 50.1169L63.486 67.3637Z" fill="#F9A51A"/>
<path fill-rule="evenodd" clip-rule="evenodd" d="M72.7537 60.4767H66.3823C65.9064 60.4767 65.5378 60.043 65.5378 59.4864C65.5378 58.9318 65.9064 58.4982 66.3823 58.4982H72.7537C73.2036 58.4982 73.6051 58.9318 73.6051 59.4864C73.6051 60.043 73.2036 60.4767 72.7537 60.4767Z" fill="#F9A51A"/>
<path fill-rule="evenodd" clip-rule="evenodd" d="M53.4473 73.605C54.0052 73.605 54.4454 74.0286 54.4454 74.5635C54.4454 75.1061 54.0052 75.5239 53.4473 75.5239H50.4004V91.812C50.4004 92.3469 49.9602 92.7646 49.4023 92.7646C48.8708 92.7646 48.4063 92.3469 48.4063 91.812V75.5239H45.3594C44.8259 75.5239 44.3613 75.1061 44.3613 74.5635C44.3613 74.0286 44.8259 73.605 45.3594 73.605H53.4473Z" fill="#F9A51A"/>
<path fill-rule="evenodd" clip-rule="evenodd" d="M59.1706 78.1291V88.2444C59.1706 89.7013 60.2047 90.8634 61.5035 90.8634C62.7762 90.8634 63.838 89.7013 63.838 88.2444V78.1291C63.838 76.7013 62.7762 75.512 61.5035 75.512C60.2047 75.512 59.1706 76.7013 59.1706 78.1291ZM57.4707 88.2444V78.1291C57.4707 75.6304 59.2761 73.605 61.5035 73.605C63.7325 73.605 65.5379 75.6304 65.5379 78.1291V88.2444C65.5379 90.7451 63.7325 92.7646 61.5035 92.7646C59.2761 92.7646 57.4707 90.7451 57.4707 88.2444Z" fill="#F9A51A"/>
<path fill-rule="evenodd" clip-rule="evenodd" d="M74.8857 88.3038C74.9405 87.528 74.6962 86.7289 74.1776 86.1606L69.8387 81.2808C69.0227 80.3634 68.5836 79.0852 68.6987 77.8051C68.7784 76.4979 69.3732 75.307 70.3238 74.5312C71.2478 73.7554 72.4693 73.4296 73.6376 73.6972C74.7777 73.9688 75.7832 74.7388 76.378 75.8695C76.6205 76.3136 76.4859 76.911 76.0522 77.1787C75.6469 77.4444 75.1016 77.2679 74.8857 76.8218C74.5352 76.1662 73.9616 75.7221 73.2801 75.5727C72.6056 75.4253 71.8975 75.6018 71.3558 76.0479C70.8106 76.4979 70.4866 77.1787 70.4318 77.9234C70.3787 78.6934 70.6212 79.4111 71.0867 79.9425L75.4256 84.8514C76.27 85.8057 76.7019 87.1129 76.6205 88.4512C76.5125 89.7894 75.9177 91.0094 74.9405 91.8143C73.9616 92.6153 72.7136 92.9392 71.5187 92.6735C70.3238 92.4078 69.2917 91.6029 68.6651 90.4469C68.4491 89.9679 68.5836 89.4054 68.9943 89.1319C69.3997 88.8662 69.9467 89.0136 70.1892 89.4946C70.5397 90.1754 71.1682 90.6545 71.8692 90.8019C72.5773 90.9512 73.3137 90.7728 73.8802 90.2937C74.4803 89.8185 74.8325 89.1028 74.8857 88.3038Z" fill="#F9A51A"/>
</svg>