<?xml version="1.0" encoding="UTF-8" standalone="no"?><!-- Generator: Gravit.io --><svg xmlns="http://www.w3.org/2000/svg" xmlns:xlink="http://www.w3.org/1999/xlink" style="isolation:isolate" viewBox="0 0 163 163" width="163pt" height="163pt"><defs><clipPath id="_clipPath_ATovHlwVo3IVYeJKbb5aiQjsPkovCnK8"><rect width="163" height="163"/></clipPath></defs><g clip-path="url(#_clipPath_ATovHlwVo3IVYeJKbb5aiQjsPkovCnK8)"><circle vector-effect="non-scaling-stroke" cx="81.49999999999999" cy="81.49999999999999" r="71.24999999999997" fill="rgb(255,197,62)"/><g><g><g><path d=" M 76.704 94.24 L 76.704 88.966 C 75.693 88.8 74.491 88.689 73.362 88.689 C 70.629 88.689 68.935 89.76 68.935 92.255 C 68.935 94.797 70.528 95.9 72.725 95.9 C 74.255 95.9 75.631 95.145 76.704 94.24 Z  M 77.279 98.612 C 75.174 100.95 72.395 101.871 68.709 101.871 C 63.426 101.871 59.223 98.847 59.223 92.946 C 59.223 86.64 64.047 83.635 70.973 83.635 C 73.24 83.635 74.992 83.859 76.704 84.191 L 76.704 82.164 C 76.704 79.563 75.342 78.363 71.652 78.363 C 68.704 78.363 66.26 79.21 64.557 80.353 L 61.487 80.353 L 61.487 73.477 C 64.277 72.279 68.289 71.086 73.637 71.086 C 82.548 71.086 86.91 74.035 86.91 81.41 L 86.922 101.46 L 81.357 101.46 C 78.978 101.46 77.84 100.618 77.279 98.612 Z  M 123.285 69.607 L 123.285 67.728 L 125.164 61.549 L 134.989 61.549 L 134.989 63.987 L 129.253 69.607 L 123.285 69.607 Z  M 121.593 83.414 L 130.901 83.414 C 130.731 78.807 129.203 77.32 126.475 77.32 C 124.136 77.32 122.161 78.53 121.593 83.414 Z  M 121.542 88.727 C 122.048 93.793 124.441 95.113 128.575 95.113 C 131.926 95.113 134.431 94.112 136.185 92.893 L 139.356 92.893 L 139.356 98.959 C 136.743 100.415 133.223 101.911 126.978 101.911 C 116.596 101.911 111.216 96.136 111.207 86.716 C 111.207 77.096 117.457 71.084 126.47 71.084 C 135.776 71.084 140.547 76.028 140.547 86.116 C 140.547 87.324 140.443 88.415 140.443 88.727 L 121.542 88.727 Z  M 90.706 71.543 L 93.942 71.543 L 93.942 69.724 C 93.942 63.596 97.692 61.039 104.164 61.039 C 106.777 61.039 108.36 61.433 109.611 61.897 L 109.611 67.577 L 107.626 67.577 C 105.367 67.577 104.164 68.034 104.164 70.121 L 104.164 71.543 L 109.272 71.543 L 109.284 78.123 L 104.164 78.123 L 104.173 101.46 L 93.963 101.46 L 93.953 78.123 L 90.722 78.123 L 90.706 71.543 Z  M 22.453 81.812 C 22.453 68.815 30.614 61.203 42.88 61.217 C 48.43 61.217 51.842 62.343 54.805 64.042 L 54.805 71.599 L 50.6 71.599 C 49.121 70.232 46.741 68.997 43.159 68.997 C 37.16 68.997 33.562 73.02 33.566 81.41 C 33.566 90.513 36.699 94.354 42.653 94.354 C 46.926 94.354 49.361 92.775 51.281 90.899 L 55.154 90.899 L 55.154 98.079 C 52.142 100.325 47.888 101.961 41.975 101.961 C 30.056 101.961 22.46 94.705 22.453 81.812 Z " fill-rule="evenodd" fill="rgb(35,34,41)"/></g></g></g></g></svg>