<?xml version="1.0" encoding="UTF-8" standalone="no"?><!-- Generator: Gravit.io --><svg xmlns="http://www.w3.org/2000/svg" xmlns:xlink="http://www.w3.org/1999/xlink" style="isolation:isolate" viewBox="0 0 177.701 100" width="177.701pt" height="100pt"><defs><clipPath id="_clipPath_ZVsilnw9yF8qItAI6ZiLOuMmbqXltfaM"><rect width="177.701" height="100"/></clipPath></defs><g clip-path="url(#_clipPath_ZVsilnw9yF8qItAI6ZiLOuMmbqXltfaM)"><g><g><g><g><path d=" M 54.197 87.311 C 55.953 87.311 57.368 86.847 58.433 85.924 C 59.507 84.997 60.04 83.678 60.04 81.971 L 60.04 81.911 C 60.04 80.221 59.507 78.906 58.433 77.977 C 57.368 77.041 55.953 76.571 54.197 76.571 L 51.807 76.571 L 51.807 87.311 L 54.197 87.311 Z  M 45.955 71.382 L 54.098 71.382 C 55.991 71.382 57.675 71.641 59.153 72.151 C 60.626 72.666 61.876 73.388 62.89 74.311 C 63.9 75.234 64.678 76.337 65.211 77.612 C 65.743 78.886 66.013 80.295 66.013 81.819 L 66.013 81.879 C 66.013 83.408 65.741 84.823 65.199 86.121 C 64.656 87.411 63.869 88.534 62.846 89.484 C 61.819 90.426 60.559 91.164 59.062 91.699 C 57.564 92.231 55.866 92.499 53.978 92.499 L 45.955 92.499 L 45.955 71.382 Z " fill-rule="evenodd" fill="rgb(0,142,207)"/><path d=" M 82.07 84.205 L 79.716 78.203 L 77.338 84.205 L 82.07 84.205 Z  M 76.944 71.232 L 82.585 71.232 L 91.573 92.5 L 85.297 92.5 L 83.761 88.729 L 75.618 88.729 L 74.111 92.5 L 67.954 92.5 L 76.944 71.232 Z " fill-rule="evenodd" fill="rgb(0,142,207)"/><path d=" M 102.247 81.881 C 103.297 81.881 104.113 81.633 104.708 81.141 C 105.296 80.641 105.595 79.971 105.595 79.121 L 105.595 79.059 C 105.595 78.15 105.296 77.459 104.708 76.984 C 104.113 76.509 103.284 76.269 102.22 76.269 L 99.473 76.269 L 99.473 81.881 L 102.247 81.881 Z  M 93.625 71.384 L 102.671 71.384 C 103.994 71.384 105.202 71.551 106.288 71.883 C 107.375 72.213 108.3 72.696 109.06 73.329 C 109.827 73.964 110.413 74.742 110.83 75.667 C 111.242 76.592 111.447 77.637 111.447 78.807 L 111.447 78.865 C 111.447 80.109 111.22 81.205 110.77 82.15 C 110.315 83.095 109.689 83.891 108.884 84.533 C 108.077 85.179 107.117 85.658 106.007 85.981 C 104.888 86.304 103.676 86.467 102.37 86.467 L 99.473 86.467 L 99.473 92.5 L 93.625 92.5 L 93.625 71.384 Z " fill-rule="evenodd" fill="rgb(0,142,207)"/><g><clipPath id="_clipPath_NwOzxJDPtrNT9pWnR73HLugKf5KmvKW1"><path d=" M 113.917 71.384 L 131.746 71.384 L 131.746 92.5 L 113.917 92.5 L 113.917 71.384 Z " fill="rgb(255,255,255)"/></clipPath><g clip-path="url(#_clipPath_NwOzxJDPtrNT9pWnR73HLugKf5KmvKW1)"><path d=" M 122.547 81.881 C 123.592 81.881 124.41 81.633 125.005 81.141 C 125.595 80.641 125.892 79.971 125.892 79.121 L 125.892 79.059 C 125.892 78.15 125.595 77.459 125.005 76.984 C 124.41 76.509 123.578 76.269 122.515 76.269 L 119.772 76.269 L 119.772 81.881 L 122.547 81.881 Z  M 113.917 71.384 L 122.97 71.384 C 124.294 71.384 125.504 71.551 126.587 71.883 C 127.672 72.213 128.597 72.696 129.364 73.329 C 130.126 73.964 130.712 74.742 131.129 75.667 C 131.535 76.592 131.746 77.637 131.746 78.807 L 131.746 78.865 C 131.746 80.109 131.515 81.205 131.064 82.15 C 130.614 83.095 129.988 83.891 129.181 84.533 C 128.375 85.179 127.423 85.658 126.302 85.981 C 125.19 86.304 123.975 86.467 122.667 86.467 L 119.772 86.467 L 119.772 92.5 L 113.917 92.5 L 113.917 71.384 Z " fill-rule="evenodd" fill="rgb(0,142,207)"/></g></g></g><g><g><path d=" M 85.61 8.107 L 109.934 8.107 L 109.934 15.492 L 94.039 15.492 L 94.039 20.616 L 108.416 20.616 L 108.416 27.652 L 94.039 27.652 L 94.039 38.506 L 85.61 38.506 L 85.61 8.107 Z " fill-rule="evenodd" fill="rgb(30,52,100)"/><path d=" M 129.258 39.113 C 126.885 39.113 124.688 38.729 122.677 37.963 C 120.672 37.198 118.92 36.112 117.447 34.729 C 115.97 33.342 114.811 31.683 113.972 29.755 C 113.13 27.833 112.713 25.71 112.713 23.398 L 112.713 23.305 C 112.713 21.108 113.13 19.045 113.943 17.114 C 114.766 15.189 115.893 13.515 117.328 12.083 C 118.773 10.648 120.499 9.524 122.51 8.714 C 124.518 7.904 126.693 7.5 129.043 7.5 C 131.734 7.5 134.055 7.891 136.009 8.669 C 137.966 9.454 139.756 10.539 141.373 11.932 L 136.419 17.88 C 135.324 16.951 134.2 16.243 133.059 15.747 C 131.913 15.26 130.587 15.017 129.079 15.017 C 127.983 15.017 126.962 15.228 126.02 15.66 C 125.079 16.096 124.259 16.695 123.564 17.441 C 122.869 18.194 122.321 19.081 121.914 20.099 C 121.511 21.108 121.312 22.197 121.312 23.353 L 121.312 23.439 C 121.312 24.653 121.517 25.781 121.924 26.831 C 122.321 27.865 122.898 28.762 123.641 29.496 C 124.387 30.232 125.255 30.812 126.257 31.235 C 127.253 31.651 128.368 31.862 129.591 31.862 C 131.564 31.862 133.194 31.443 134.469 30.6 L 134.469 26.911 L 128.476 26.911 L 128.476 20.743 L 142.462 20.743 L 142.462 34.424 C 140.832 35.753 138.933 36.874 136.723 37.771 C 134.529 38.665 132.038 39.113 129.258 39.113 Z " fill-rule="evenodd" fill="rgb(30,52,100)"/><path d=" M 144.724 8.107 L 154.133 8.107 L 161.044 27.345 L 167.949 8.107 L 177.201 8.107 L 164.842 38.506 L 157.025 38.506 L 144.724 8.107 Z " fill-rule="evenodd" fill="rgb(30,52,100)"/></g><path d=" M 43.894 18.005 L 54.37 8.189 L 77.957 8.189 L 57.992 26.755 L 43.894 18.005 Z " fill-rule="evenodd" fill="rgb(0,142,207)"/><path d=" M 0.5 8.188 L 24.779 8.188 L 51.2 38.542 L 26.918 38.542 L 0.5 8.188 Z " fill-rule="evenodd" fill="rgb(30,52,100)"/></g></g></g></g><line x1="0.5" y1="52" x2="177.201" y2="52" vector-effect="non-scaling-stroke" stroke-width="1" stroke="rgb(30,52,100)" stroke-linejoin="miter" stroke-linecap="square" stroke-miterlimit="3"/></g></svg>