<svg xmlns="http://www.w3.org/2000/svg" width="120" height="25">
    <g  fill="#fff" fill-rule="evenodd">
        <path d="M716 952.487v-17.636c0-1.376.29-2.361.872-2.957.582-.596 1.442-.894 2.582-.894 1.024 0 1.797.235 2.32.705.524.47.96 1.289 1.309 2.458l5.129 16.262c.163.504.331.836.506.997.174.16.401.24.68.24.558 0 .838-.435.838-1.306v-17.878c0-.458.08-.767.244-.928.163-.16.477-.24.942-.24h.314c.465 0 .78.08.942.24.163.16.244.47.244.928v17.637c0 1.375-.273 2.36-.82 2.957-.546.596-1.39.894-2.53.894-1.07 0-1.878-.252-2.424-.757-.547-.504-1.006-1.363-1.379-2.578l-5.059-15.987c-.163-.527-.32-.882-.47-1.066-.152-.183-.379-.275-.681-.275-.605 0-.907.459-.907 1.376v17.808c0 .459-.082.768-.245.929-.162.16-.476.24-.942.24h-.279c-.465 0-.779-.08-.942-.24-.163-.16-.244-.47-.244-.929zm34.717-10.726v6.807c0 1.902-.588 3.283-1.762 4.143-1.175.86-3.019 1.289-5.53 1.289-2.001 0-3.594-.413-4.78-1.238-1.187-.825-1.78-2.131-1.78-3.919 0-1.788.593-3.071 1.78-3.85 1.186-.78 2.965-1.17 5.338-1.17h4.117v-2.062c0-1.17-.39-1.983-1.17-2.441-.778-.459-1.912-.688-3.401-.688-1.535 0-2.815.126-3.838.378-.419.092-.71.075-.872-.051-.163-.126-.245-.395-.245-.808v-.275c0-.39.07-.659.21-.808.14-.149.418-.27.837-.361 1.163-.23 2.42-.344 3.768-.344 4.885 0 7.328 1.8 7.328 5.398zm-2.617 6.704v-2.613h-4.083c-1.558 0-2.704.23-3.436.688-.733.458-1.1 1.226-1.1 2.303 0 1.948 1.303 2.922 3.908 2.922 1.605 0 2.792-.229 3.56-.687.767-.459 1.15-1.33 1.15-2.613zm6.978 4.022v-17.636c0-1.376.29-2.361.872-2.957.582-.596 1.442-.894 2.582-.894 1.024 0 1.797.235 2.32.705.524.47.96 1.289 1.309 2.458l5.129 16.262c.163.504.331.836.506.997.174.16.4.24.68.24.558 0 .837-.435.837-1.306v-17.878c0-.458.082-.767.245-.928.162-.16.476-.24.942-.24h.314c.465 0 .779.08.942.24.163.16.244.47.244.928v17.637c0 1.375-.273 2.36-.82 2.957-.547.596-1.39.894-2.53.894-1.07 0-1.878-.252-2.424-.757-.547-.504-1.006-1.363-1.379-2.578l-5.059-15.987c-.163-.527-.32-.882-.47-1.066-.152-.183-.379-.275-.681-.275-.605 0-.907.459-.907 1.376v17.808c0 .459-.082.768-.245.929-.162.16-.476.24-.942.24h-.279c-.465 0-.78-.08-.942-.24-.163-.16-.244-.47-.244-.929z" opacity=".9" transform="translate(-716 -930.006)"/>
        <path d="M71.398 13.4l-1.455-.48C68.79 12.542 68 12.01 68 11.037c0-1.276 1.036-2.043 2.762-2.043a6.58 6.58 0 0 1 2.232.401l-.077.486a6.208 6.208 0 0 0-2.137-.4c-1.378 0-2.238.56-2.238 1.54 0 .903.818 1.155 1.631 1.43l1.366.458c1.39.457 1.89 1.081 1.89 2.014 0 1.305-1.065 2.071-2.85 2.071-1.013 0-1.825-.2-2.561-.515l.064-.52c.801.366 1.685.549 2.486.549 1.454 0 2.32-.595 2.32-1.62 0-.68-.377-1.121-1.49-1.487zm2.774-4.291h.642l2.767 4.137 2.774-4.137h.636l-3.139 4.68v3.091h-.541v-3.09zM85.284 13.4l-1.454-.48c-1.155-.379-1.944-.91-1.944-1.884 0-1.276 1.037-2.043 2.762-2.043a6.58 6.58 0 0 1 2.232.401l-.076.486a6.208 6.208 0 0 0-2.138-.4c-1.378 0-2.238.56-2.238 1.54 0 .903.819 1.155 1.631 1.43l1.367.458c1.39.457 1.89 1.081 1.89 2.014 0 1.305-1.066 2.071-2.85 2.071-1.013 0-1.826-.2-2.562-.515l.065-.52c.8.366 1.684.549 2.485.549 1.454 0 2.32-.595 2.32-1.62 0-.68-.377-1.121-1.49-1.487zm9.11-3.829h-2.832v7.308h-.542V9.572h-2.838V9.11h6.213zm7.403 7.308h-5.742V9.109h5.607v.463h-5.065v3.073h4.434v.464h-4.434v3.307h5.2zm6.437-2.844h-.118l-3.634-4.258v7.102h-.541V9.109h.671l3.557 4.206 3.527-4.206h.678v7.771h-.542V9.778zm9.734-.635l-1.454-.48c-1.155-.379-1.944-.91-1.944-1.884 0-1.276 1.037-2.043 2.762-2.043a6.58 6.58 0 0 1 2.232.401l-.076.486a6.208 6.208 0 0 0-2.138-.4c-1.378 0-2.238.56-2.238 1.54 0 .903.819 1.155 1.631 1.43l1.367.458c1.39.457 1.89 1.081 1.89 2.014 0 1.305-1.066 2.071-2.85 2.071-1.013 0-1.826-.2-2.562-.515l.065-.52c.8.366 1.684.549 2.485.549 1.455 0 2.32-.595 2.32-1.62 0-.68-.377-1.121-1.49-1.487z" opacity=".7"/>
        <path d="M62 .25v24.522" stroke="#fff" stroke-width=".5" stroke-linecap="square"/>
    </g>
</svg>
