<?xml version="1.0" encoding="UTF-8"?>
<svg width="134px" height="14px" viewBox="0 0 134 14" version="1.1" xmlns="http://www.w3.org/2000/svg" xmlns:xlink="http://www.w3.org/1999/xlink">
    <!-- Generator: Sketch 62 (91390) - https://sketch.com -->
    <title>Group 20</title>
    <desc>Created with Sketch.</desc>
    <defs>
        <polygon id="path-1" points="0.274363636 0.535363636 11.1831818 0.535363636 11.1831818 13.4558182 0.274363636 13.4558182"></polygon>
    </defs>
    <g id="2020-01-14-copy" stroke="none" stroke-width="1" fill="none" fill-rule="evenodd">
        <g id="LOGIN_2020-01-14-v2" transform="translate(-652.000000, -648.000000)">
            <g id="Group-20" transform="translate(652.000000, 648.000000)">
                <path d="M86.4604091,10.5309409 C87.5349545,10.5309409 88.4008636,10.2473045 89.0526818,9.68275909 C89.7099545,9.11548636 90.0358636,8.30821364 90.0358636,7.26366818 L90.0358636,7.22685 C90.0358636,6.19321364 89.7099545,5.38866818 89.0526818,4.82003182 C88.4008636,4.24730455 87.5349545,3.95957727 86.4604091,3.95957727 L84.9985909,3.95957727 L84.9985909,10.5309409 L86.4604091,10.5309409 Z M81.4176818,0.785031818 L86.4004091,0.785031818 C87.5581364,0.785031818 88.5890455,0.943213636 89.4931364,1.25548636 C90.3945,1.57048636 91.1595,2.01230455 91.7799545,2.57685 C92.3976818,3.14139545 92.8735909,3.81639545 93.1995,4.59639545 C93.5254091,5.37639545 93.6904091,6.23821364 93.6904091,7.17094091 L93.6904091,7.20775909 C93.6904091,8.14321364 93.5240455,9.00912273 93.1926818,9.80275909 C92.8599545,10.5923045 92.3785909,11.2795773 91.7526818,11.8604864 C91.1240455,12.4373045 90.3535909,12.8886682 89.4372273,13.2159409 C88.5208636,13.54185 87.4817727,13.7054864 86.3267727,13.7054864 L81.4176818,13.7054864 L81.4176818,0.785031818 Z" id="Fill-1" fill="#008ECF"></path>
                <path d="M103.515136,8.63057727 L102.075136,4.95830455 L100.620136,8.63057727 L103.515136,8.63057727 Z M100.378773,0.69285 L103.830136,0.69285 L109.329682,13.7060318 L105.489682,13.7060318 L104.550136,11.3987591 L99.5674091,11.3987591 L98.6455909,13.7060318 L94.8778636,13.7060318 L100.378773,0.69285 Z" id="Fill-3" fill="#008ECF"></path>
                <path d="M115.861091,7.20844091 C116.503364,7.20844091 117.002455,7.05707727 117.366545,6.75571364 C117.726545,6.45025909 117.909273,6.03980455 117.909273,5.52025909 L117.909273,5.48207727 C117.909273,4.92571364 117.726545,4.50298636 117.366545,4.21253182 C117.002455,3.92207727 116.495182,3.77480455 115.844727,3.77480455 L114.163364,3.77480455 L114.163364,7.20844091 L115.861091,7.20844091 Z M110.585182,0.785713636 L116.120182,0.785713636 C116.930182,0.785713636 117.669273,0.887986364 118.333364,1.09116818 C118.998818,1.29298636 119.564727,1.58889545 120.029727,1.97616818 C120.498818,2.36480455 120.857455,2.84071364 121.112455,3.40662273 C121.364727,3.97253182 121.490182,4.61207727 121.490182,5.32798636 L121.490182,5.36344091 C121.490182,6.12435 121.351091,6.79525909 121.075636,7.37344091 C120.797455,7.95162273 120.414273,8.43844091 119.922,8.83116818 C119.428364,9.22662273 118.840636,9.51980455 118.161545,9.71753182 C117.477,9.91525909 116.735182,10.0148045 115.936091,10.0148045 L114.163364,10.0148045 L114.163364,13.7061682 L110.585182,13.7061682 L110.585182,0.785713636 Z" id="Fill-5" fill="#008ECF"></path>
                <g id="Group-9" transform="translate(122.727273, 0.250350)">
                    <mask id="mask-2" fill="white">
                        <use xlink:href="#path-1"></use>
                    </mask>
                    <g id="Clip-8"></g>
                    <path d="M5.55436364,6.95809091 C6.19390909,6.95809091 6.69436364,6.80672727 7.05845455,6.50536364 C7.41981818,6.19990909 7.60118182,5.78945455 7.60118182,5.26990909 L7.60118182,5.23172727 C7.60118182,4.67536364 7.41981818,4.25263636 7.05845455,3.96218182 C6.69436364,3.67172727 6.18572727,3.52445455 5.53527273,3.52445455 L3.85663636,3.52445455 L3.85663636,6.95809091 L5.55436364,6.95809091 Z M0.274363636,0.535363636 L5.81345455,0.535363636 C6.62345455,0.535363636 7.36390909,0.637636364 8.02663636,0.840818182 C8.69072727,1.04263636 9.25663636,1.33854545 9.72572727,1.72581818 C10.1920909,2.11445455 10.5507273,2.59036364 10.8057273,3.15627273 C11.0539091,3.72218182 11.1834545,4.36172727 11.1834545,5.07763636 L11.1834545,5.11309091 C11.1834545,5.874 11.0416364,6.54490909 10.7661818,7.12309091 C10.4907273,7.70127273 10.1075455,8.18809091 9.61390909,8.58081818 C9.12027273,8.97627273 8.538,9.26945455 7.85209091,9.46718182 C7.17163636,9.66490909 6.42845455,9.76445455 5.628,9.76445455 L3.85663636,9.76445455 L3.85663636,13.4558182 L0.274363636,13.4558182 L0.274363636,0.535363636 Z" id="Fill-7" fill="#008ECF" mask="url(#mask-2)"></path>
                </g>
                <polygon id="Fill-10" fill="#1E3464" points="36.2389091 0.684531818 46.5957273 0.684531818 46.5957273 3.82907727 39.828 3.82907727 39.828 6.01089545 45.9493636 6.01089545 45.9493636 9.00680455 39.828 9.00680455 39.828 13.6281682 36.2389091 13.6281682"></polygon>
                <path d="M54.8237727,13.8867136 C53.8133182,13.8867136 52.8778636,13.7230773 52.0215,13.3971682 C51.1678636,13.0712591 50.4219545,12.6089864 49.7946818,12.0198955 C49.1660455,11.4294409 48.6724091,10.7230773 48.3151364,9.90216818 C47.9565,9.08398636 47.7792273,8.17989545 47.7792273,7.19535 L47.7792273,7.15580455 C47.7792273,6.22035 47.9565,5.34216818 48.3028636,4.51989545 C48.6533182,3.70035 49.1333182,2.98716818 49.7442273,2.37762273 C50.3592273,1.76671364 51.0942273,1.28807727 51.9505909,0.943077273 C52.8055909,0.598077273 53.7315,0.426259091 54.7324091,0.426259091 C55.8778636,0.426259091 56.8665,0.592622727 57.6983182,0.923986364 C58.5315,1.25807727 59.2937727,1.72035 59.9824091,2.31353182 L57.8728636,4.84580455 C57.4065,4.45035 56.9278636,4.14898636 56.4424091,3.93762273 C55.9542273,3.73035 55.3896818,3.62671364 54.7474091,3.62671364 C54.2810455,3.62671364 53.8460455,3.71671364 53.4451364,3.90080455 C53.0442273,4.08625909 52.6951364,4.34125909 52.3992273,4.65898636 C52.1033182,4.97944091 51.8701364,5.35716818 51.6969545,5.79080455 C51.5251364,6.22035 51.4405909,6.68398636 51.4405909,7.17625909 L51.4405909,7.21307727 C51.4405909,7.72989545 51.5278636,8.20989545 51.7010455,8.65716818 C51.8701364,9.09762273 52.1155909,9.47944091 52.4319545,9.79171364 C52.7496818,10.10535 53.1192273,10.3521682 53.5460455,10.5321682 C53.9701364,10.7094409 54.4446818,10.7994409 54.9655909,10.7994409 C55.8055909,10.7994409 56.4996818,10.6208045 57.0424091,10.2621682 L57.0424091,8.69125909 L54.4910455,8.69125909 L54.4910455,6.06489545 L60.4460455,6.06489545 L60.4460455,11.89035 C59.7519545,12.4562591 58.9433182,12.9335318 58.0024091,13.31535 C57.0683182,13.6958045 56.0074091,13.8867136 54.8237727,13.8867136" id="Fill-12" fill="#1E3464"></path>
                <polygon id="Fill-14" fill="#1E3464" points="61.4089091 0.684531818 65.4152727 0.684531818 68.358 8.87589545 71.298 0.684531818 75.2375455 0.684531818 69.9752727 13.6281682 66.6466364 13.6281682"></polygon>
                <polygon id="Fill-16" fill="#008ECF" points="18.477 4.89925909 22.9374545 0.719713636 32.9806364 0.719713636 24.4797273 8.62471364"></polygon>
                <polygon id="Fill-18" fill="#1E3464" points="0 0.719168182 10.3377273 0.719168182 21.5877273 13.6437136 11.2486364 13.6437136"></polygon>
            </g>
        </g>
    </g>
</svg>