<svg xmlns="http://www.w3.org/2000/svg" xmlns:xlink="http://www.w3.org/1999/xlink" viewBox="0 0 151.11 151.01"><defs><style>.cls-1{fill:#ddb839;}.cls-2,.cls-3,.cls-4,.cls-5,.cls-6{fill-rule:evenodd;}.cls-2{fill:url(#linear-gradient);}.cls-3{fill:url(#linear-gradient-2);}.cls-4{fill:url(#linear-gradient-3);}.cls-5{fill:url(#linear-gradient-4);}.cls-6{fill:#fff;}</style><linearGradient id="linear-gradient" x1="21.91" y1="276.79" x2="132.47" y2="203.69" gradientTransform="translate(0 -148.59)" gradientUnits="userSpaceOnUse"><stop offset="0.01" stop-color="#3895d0"></stop><stop offset="1" stop-color="#02548b"></stop></linearGradient><linearGradient id="linear-gradient-2" x1="44.21" y1="171.5" x2="136.24" y2="231.14" gradientTransform="translate(0 -148.59)" gradientUnits="userSpaceOnUse"><stop offset="0" stop-color="#c5ce2e"></stop><stop offset="1" stop-color="#599441"></stop></linearGradient><linearGradient id="linear-gradient-3" x1="143.27" y1="224.03" x2="47.42" y2="206.88" gradientTransform="translate(0 -148.59)" gradientUnits="userSpaceOnUse"><stop offset="0" stop-color="#036233"></stop><stop offset="1" stop-color="#7db041"></stop></linearGradient><linearGradient id="linear-gradient-4" x1="40.34" y1="213.09" x2="115.47" y2="261.78" gradientTransform="translate(0 -148.59)" gradientUnits="userSpaceOnUse"><stop offset="0" stop-color="#e8e214"></stop><stop offset="1" stop-color="#06793d"></stop></linearGradient></defs><g id="Layer_2" data-name="Layer 2"><g id="Layer_1-2" data-name="Layer 1"><ellipse class="cls-1" cx="74.48" cy="72.26" rx="48.86" ry="74.81" transform="translate(-6.53 137.13) rotate(-82.82)"></ellipse><path class="cls-2" d="M48.68,48.53C86,26,129.09,27.06,144.84,50.87s-1.78,61.38-39.14,83.91-80.41,21.47-96.15-2.34S11.32,71.05,48.68,48.53Z"></path><path class="cls-3" d="M115.22,14.17C145.88,34,159.53,67.41,145.73,88.71S95.89,111.17,65.24,91.3,20.93,38.07,34.73,16.77,84.57-5.69,115.22,14.17Z"></path><path class="cls-4" d="M48.68,48.53C86,26,129.09,27.06,144.84,50.87c5.63,8.52,7,18.8,4.74,29.52a33.47,33.47,0,0,1-3.85,8.32C131.93,110,95.89,111.17,65.24,91.3c-14-9-24.39-20.88-30.31-33.11A117.51,117.51,0,0,1,48.68,48.53Z"></path><path class="cls-5" d="M148.38,83.7c-4.71,24.59-37.63,41.1-76.46,37.43C44.46,118.54,21,106.51,8.85,90.76,14,79.33,22.94,68,34.93,58.19,40.85,70.42,51.28,82.26,65.24,91.3c30.65,19.87,66.68,18.7,80.49-2.59A35.26,35.26,0,0,0,148.38,83.7Z"></path><path class="cls-6" d="M3,102.29h13.2L17.47,94h9.84l1.26,8.31H41.72L30.16,54.85H14.62ZM25.84,84.68H18.93l3.39-20.13h.14Zm18.34,17.61H62.85c10.3,0,14.29-5.78,14.29-14,0-4.92-2.53-10.23-8.77-10.83v-.13c5.25-1.07,7.44-5.59,7.44-10.64,0-7.11-4.12-11.82-13-11.82H44.18ZM56.54,63.75h3c2.53,0,3.92,2.26,3.92,4.92s-1.39,4.78-3.92,4.78h-3Zm0,18.07H60c2.25,0,4.38,2.06,4.38,5.72,0,3.85-2.13,5.84-4.38,5.84H56.54ZM92.22,71.19v-2c0-5.32,1.73-6.25,3.45-6.25,1.93,0,3.19,1.27,3.19,5.25,0,3.52-.93,5.32-3.32,7.71L87.3,84.27c-5.38,5.52-7,11.5-7,18h31V93H95c.47-1.4,2-2.79,3.06-3.86L105.38,82a18.3,18.3,0,0,0,5.84-14c0-7-2.79-12.82-15.15-12.82-6.38,0-10.23,1.59-12.49,4.38s-2.86,6.71-2.92,11.56Zm24.25,31.1H144V92.19H128.83V54.85H116.47Z"></path></g></g></svg>