<?xml version="1.0" encoding="UTF-8" standalone="no"?><!-- Generator: Gravit.io --><svg xmlns="http://www.w3.org/2000/svg" xmlns:xlink="http://www.w3.org/1999/xlink" style="isolation:isolate" viewBox="0 0 134 134.788" width="134pt" height="134.788pt"><defs><clipPath id="_clipPath_w51nU9IMCro9snVhF45n5MmMKM7QPP40"><rect width="134" height="134.788"/></clipPath></defs><g clip-path="url(#_clipPath_w51nU9IMCro9snVhF45n5MmMKM7QPP40)"><g><g><g><path d=" M 40.559 91.68 C 42.123 93.247 42.123 95.788 40.559 97.354 C 38.994 98.921 36.457 98.921 34.893 97.354 L 1.369 63.784 C -0.456 61.956 -0.456 58.992 1.369 57.164 L 57.085 1.371 C 58.91 -0.457 61.869 -0.457 63.695 1.371 L 132.631 70.403 C 134.456 72.231 134.456 75.195 132.631 77.023 L 122.592 87.077 C 121.027 88.643 118.49 88.643 116.926 87.077 C 115.361 85.51 115.361 82.969 116.926 81.403 L 124.604 73.713 L 60.39 9.409 L 9.396 60.474 L 40.559 91.68 Z " fill="rgb(51,63,82)"/><path d=" M 98.747 99.735 C 100.32 98.128 102.871 98.128 104.444 99.735 C 106.017 101.342 106.017 103.948 104.444 105.555 L 77.206 133.382 C 75.371 135.257 72.395 135.257 70.56 133.382 L 50.839 113.234 C 49.266 111.627 49.266 109.021 50.839 107.414 C 52.412 105.807 54.962 105.807 56.535 107.414 L 73.883 125.137 L 98.747 99.735 Z " fill="rgb(0,153,143)"/><path d=" M 39.94 66.481 C 38.377 68.062 35.842 68.062 34.278 66.481 C 32.715 64.9 32.715 62.336 34.278 60.755 L 62.767 31.947 C 65.67 29.012 70.539 31.868 69.462 35.872 L 61.228 66.476 L 79.071 48.433 C 81.963 45.509 86.82 48.335 85.772 52.333 L 73.837 97.882 C 73.271 100.043 71.079 101.331 68.942 100.758 C 66.805 100.185 65.531 97.969 66.097 95.808 L 74.227 64.783 L 56.244 82.967 C 53.342 85.902 48.473 83.047 49.55 79.042 L 57.783 48.438 L 39.94 66.481 Z " fill="rgb(51,63,82)"/><path d=" M 95.754 77.677 C 94.225 79.206 91.746 79.206 90.217 77.677 C 88.688 76.148 88.688 73.669 90.217 72.14 L 94.21 68.147 C 95.739 66.618 98.218 66.618 99.747 68.147 C 101.276 69.676 101.276 72.155 99.747 73.684 L 95.754 77.677 Z " fill="rgb(51,63,82)"/></g></g></g></g></svg>